# xmcd
#
# Track frame offsets:
#	150
#	18805
#	28311
#	45013
#	60304
#	77474
#	90018
#	108271
#	121536
#	136741
#
# Disc length: 2064 seconds
#
# Revision: 0
# Processed by: cddbd v1.5.1PL0 Copyright (c) Steve Scherf et al.
# Submitted via: dBpowerAMP V4.0
#
DISCID=58080e0a
DTITLE=George Strait - 2004
DYEAR=1900
DGENRE=
TTITLE0=If You Can Do Anything Else
TTITLE1=Don't Make Me Come Over There And Love You
TTITLE2=Lookin' Out My Window Through The Pain
TTITLE3=Go On 
TTITLE4=If It's Gonna Rain
TTITLE5=Home Improvement
TTITLE6=The Night's Just Right For Love
TTITLE7=You're Stronger Than Me
TTITLE8=Which Side Of The Glass
TTITLE9=She Took The Wind From His Sails
EXTD=
EXTT0=
EXTT1=
EXTT2=
EXTT3=
EXTT4=
EXTT5=
EXTT6=
EXTT7=
EXTT8=
EXTT9=
PLAYORDER=
